<svg xmlns="http://www.w3.org/2000/svg" viewBox="0 0 220 220" role="img" aria-label="Avatar do barbeiro Marcos">
  <rect width="220" height="220" rx="32" fill="#191919"/>
  <circle cx="110" cy="84" r="48" fill="#caa765"/>
  <path d="M58 194c8-50 34-74 52-74s44 24 52 74" fill="#2d2c29"/>
  <path d="M64 83c3-39 26-60 55-58 35 2 50 28 46 65-28-8-58-16-101-7z" fill="#24211c"/>
  <path d="M80 100c16 22 45 27 63 0 0 34-12 52-32 52s-31-18-31-52z" fill="#171717" opacity=".32"/>
  <path d="M80 156c17 12 43 12 60 0" stroke="#caa765" stroke-width="8" stroke-linecap="round"/>
</svg>