<svg xmlns="http://www.w3.org/2000/svg" viewBox="0 0 1200 760" role="img" aria-labelledby="title desc">
  <title id="title">Interior moderno de barbearia</title>
  <desc id="desc">Cadeira de barbeiro, espelho, bancada e iluminacao quente em tons escuros e dourados.</desc>
  <defs>
    <linearGradient id="wall" x1="0" x2="1" y1="0" y2="1">
      <stop offset="0" stop-color="#252525"/>
      <stop offset=".56" stop-color="#151515"/>
      <stop offset="1" stop-color="#0d0d0d"/>
    </linearGradient>
    <linearGradient id="floor" x1="0" x2="0" y1="0" y2="1">
      <stop offset="0" stop-color="#2c2a25"/>
      <stop offset="1" stop-color="#121211"/>
    </linearGradient>
    <linearGradient id="brass" x1="0" x2="1" y1="0" y2="1">
      <stop offset="0" stop-color="#f4d27e"/>
      <stop offset=".5" stop-color="#b98d45"/>
      <stop offset="1" stop-color="#6d502a"/>
    </linearGradient>
    <linearGradient id="leather" x1="0" x2="1" y1="0" y2="1">
      <stop offset="0" stop-color="#33302c"/>
      <stop offset="1" stop-color="#121212"/>
    </linearGradient>
    <filter id="softShadow" x="-20%" y="-20%" width="140%" height="150%">
      <feDropShadow dx="0" dy="22" stdDeviation="18" flood-color="#000" flood-opacity=".45"/>
    </filter>
  </defs>
  <rect width="1200" height="760" fill="url(#wall)"/>
  <path d="M0 510h1200v250H0z" fill="url(#floor)"/>
  <path d="M0 510h1200" stroke="#5b4b32" stroke-width="3" opacity=".5"/>
  <g opacity=".9">
    <rect x="72" y="96" width="382" height="332" rx="18" fill="#111" stroke="url(#brass)" stroke-width="7"/>
    <rect x="96" y="120" width="334" height="284" rx="10" fill="#242424"/>
    <path d="M118 142h270c-35 86-100 152-270 206z" fill="#3c3b38" opacity=".48"/>
    <rect x="520" y="96" width="440" height="332" rx="18" fill="#111" stroke="url(#brass)" stroke-width="7"/>
    <rect x="546" y="122" width="388" height="280" rx="10" fill="#212120"/>
    <path d="M574 152h312c-42 90-124 157-312 212z" fill="#3d3b36" opacity=".42"/>
  </g>
  <g filter="url(#softShadow)">
    <rect x="92" y="452" width="958" height="54" rx="8" fill="#171717"/>
    <rect x="110" y="432" width="920" height="34" rx="6" fill="#35312a"/>
    <rect x="130" y="448" width="880" height="8" fill="#c3a05a" opacity=".55"/>
    <rect x="174" y="390" width="68" height="42" rx="6" fill="#1b1b1b"/>
    <rect x="270" y="370" width="124" height="62" rx="8" fill="#181818"/>
    <rect x="292" y="348" width="80" height="22" rx="4" fill="url(#brass)"/>
    <rect x="806" y="366" width="136" height="66" rx="8" fill="#171717"/>
    <circle cx="834" cy="396" r="14" fill="#d7bb76"/>
    <circle cx="878" cy="396" r="14" fill="#7a6a52"/>
    <circle cx="920" cy="396" r="14" fill="#d7bb76"/>
  </g>
  <g filter="url(#softShadow)">
    <ellipse cx="594" cy="647" rx="190" ry="34" fill="#050505" opacity=".6"/>
    <rect x="535" y="515" width="118" height="126" rx="18" fill="url(#leather)" stroke="#282621" stroke-width="5"/>
    <rect x="488" y="435" width="214" height="114" rx="34" fill="url(#leather)" stroke="#2c2924" stroke-width="6"/>
    <rect x="454" y="470" width="80" height="106" rx="28" fill="#1d1d1c" stroke="#2e2a24" stroke-width="5"/>
    <rect x="656" y="470" width="80" height="106" rx="28" fill="#1d1d1c" stroke="#2e2a24" stroke-width="5"/>
    <rect x="522" y="370" width="146" height="96" rx="30" fill="#1a1a19" stroke="#3c3224" stroke-width="6"/>
    <path d="M540 392c34-21 79-22 112-2" fill="none" stroke="#c7a35a" stroke-width="6" stroke-linecap="round" opacity=".75"/>
    <rect x="582" y="638" width="26" height="68" fill="url(#brass)"/>
    <path d="M502 716h186" stroke="#a98244" stroke-width="14" stroke-linecap="round"/>
  </g>
  <g opacity=".96">
    <rect x="1010" y="96" width="58" height="240" rx="29" fill="#0f0f0f" stroke="#d0a759" stroke-width="6"/>
    <path d="M1022 142l36 36M1022 214l36 36M1022 286l36 36" stroke="#e9e6dd" stroke-width="16" stroke-linecap="round"/>
    <path d="M1058 142l-36 36M1058 214l-36 36M1058 286l-36 36" stroke="#9e2f2f" stroke-width="16" stroke-linecap="round"/>
  </g>
  <g opacity=".42">
    <circle cx="170" cy="76" r="36" fill="#d9bd7a"/>
    <circle cx="735" cy="72" r="42" fill="#d9bd7a"/>
    <circle cx="1028" cy="70" r="31" fill="#d9bd7a"/>
  </g>
</svg>